<?xml version="1.0" standalone="no"?><!DOCTYPE svg PUBLIC "-//W3C//DTD SVG 1.1//EN" "http://www.w3.org/Graphics/SVG/1.1/DTD/svg11.dtd"><svg t="1584856077503" class="icon" viewBox="0 0 1024 1024" version="1.1" xmlns="http://www.w3.org/2000/svg" p-id="7084" xmlns:xlink="http://www.w3.org/1999/xlink" width="32" height="32"><defs><style type="text/css"></style></defs><path d="M744.704 599.232a116.48 116.48 0 0 0 116.416 116.352H1024V482.88h-162.88a116.48 116.48 0 0 0-116.416 116.352z m186.24 0c0 38.528-31.36 69.888-69.824 69.888-38.528 0-69.824-31.36-69.824-69.824 0-38.528 31.36-69.824 69.76-69.824 38.528 0 69.824 31.36 69.824 69.76z" fill="#000000" p-id="7085"></path><path d="M954.24 250.24H69.76A115.2 115.2 0 0 1 0 226.24v698.816c0 38.464 31.36 69.76 69.76 69.76h884.48c38.4 0 69.76-31.296 69.76-69.76v-162.944h-162.88a163.072 163.072 0 0 1-162.944-162.944 163.072 163.072 0 0 1 162.944-162.88H1024V320c0-38.528-31.36-69.824-69.76-69.824M954.24 64H69.76a69.76 69.76 0 0 0-65.472 46.528l903.36 0.064c38.464 0 69.76 31.36 69.76 69.76v25.6c17.344 3.584 33.024 11.328 46.592 21.568V133.888C1024 95.36 992.64 64 954.24 64" p-id="7086"></path><path d="M930.88 203.648v-23.232c0-12.8-10.368-23.296-23.232-23.296H4.288c9.6 27.008 35.2 46.528 65.536 46.528h861.056" p-id="7087"></path></svg>