<?xml version="1.0" standalone="no"?><!DOCTYPE svg PUBLIC "-//W3C//DTD SVG 1.1//EN" "http://www.w3.org/Graphics/SVG/1.1/DTD/svg11.dtd"><svg t="1561345235903" class="icon" viewBox="0 0 1024 1024" version="1.1" xmlns="http://www.w3.org/2000/svg" p-id="2461" width="48" height="48" xmlns:xlink="http://www.w3.org/1999/xlink"><defs><style type="text/css"></style></defs><path d="M984 392a40 40 0 0 0-40 40v140H472c0-88.224-71.776-160-160-160H160c-29.136 0-56.448 7.864-80 21.52V206a40 40 0 1 0-80 0V984a40 40 0 1 0 80 0v-132h624a40 40 0 1 0 0-80H80v-120h864V768h-40a40 40 0 1 0 0 80h40v136a40 40 0 1 0 80 0V432a40 40 0 0 0-40-40zM160 492h152c44.112 0 80 35.888 80 80H80c0-44.112 35.888-80 80-80z m504-312a40 40 0 0 1 40-40h100V40a40 40 0 1 1 80 0v100H984a40 40 0 1 1 0 80h-100V320a40 40 0 1 1-80 0V220H704a40 40 0 0 1-40-40z" fill="#09b80e" p-id="2462"></path></svg>