<?xml version="1.0" standalone="no"?><!DOCTYPE svg PUBLIC "-//W3C//DTD SVG 1.1//EN" "http://www.w3.org/Graphics/SVG/1.1/DTD/svg11.dtd"><svg t="1557451983950" class="icon" style="" viewBox="0 0 1024 1024" version="1.1" xmlns="http://www.w3.org/2000/svg" p-id="3644" xmlns:xlink="http://www.w3.org/1999/xlink" width="200" height="200"><defs><style type="text/css"></style></defs><path d="M512 0C229.052632 0 0 229.052632 0 512s229.052632 512 512 512 512-229.052632 512-512S794.947368 0 512 0z m202.105263 655.719298c16.168421 16.168421 16.168421 42.217544 0 58.385965-8.084211 8.084211-18.863158 12.575439-29.642105 12.575439-10.778947 0-21.557895-4.491228-29.642105-12.575439l-143.719299-143.719298-143.719298 143.719298c-8.084211 8.084211-18.863158 12.575439-29.642105 12.575439s-21.557895-4.491228-29.642105-12.575439c-16.168421-16.168421-16.168421-42.217544 0-58.385965l143.719298-143.719298-143.719298-143.719298c-16.168421-16.168421-16.168421-42.217544 0-58.385965 16.168421-16.168421 42.217544-16.168421 58.385965 0l143.719298 143.719298 143.719298-143.719298c16.168421-16.168421 42.217544-16.168421 58.385965 0 16.168421 16.168421 16.168421 42.217544 0 58.385965l-143.719298 143.719298 145.515789 143.719298z" fill="#FD7C06" p-id="3645"></path></svg>