<?xml version="1.0" standalone="no"?><!DOCTYPE svg PUBLIC "-//W3C//DTD SVG 1.1//EN" "http://www.w3.org/Graphics/SVG/1.1/DTD/svg11.dtd"><svg t="1584855660588" class="icon" viewBox="0 0 1024 1024" version="1.1" xmlns="http://www.w3.org/2000/svg" p-id="3792" width="32" height="32" xmlns:xlink="http://www.w3.org/1999/xlink"><defs><style type="text/css"></style></defs><path d="M837.12 42.666667H186.88C136.746667 42.666667 117.333333 62.293333 117.333333 113.066667v776.533333A91.306667 91.306667 0 0 0 208.213333 981.333333h9.173334L362.666667 888.96l99.413333 76.8a53.12 53.12 0 0 0 59.946667 3.626667l136.96-81.706667L806.613333 981.333333h9.386667a91.306667 91.306667 0 0 0 90.88-91.733333V113.066667C906.666667 62.293333 887.253333 42.666667 837.12 42.666667z m5.546667 846.933333a27.52 27.52 0 0 1-19.2 26.453333l-134.826667-85.333333a52.906667 52.906667 0 0 0-56.106667 0l-136.32 81.493333-99.626666-76.8a53.333333 53.333333 0 0 0-61.226667-2.986666l-134.826667 85.333333a27.52 27.52 0 0 1-19.2-26.453333V113.066667v-6.186667h661.333334v6.186667z" p-id="3793"></path><path d="M661.333333 437.333333a32 32 0 1 0 0-64h-92.16l89.173334-89.173333a37.546667 37.546667 0 0 0 5.76-52.053333 37.546667 37.546667 0 0 0-52.053334 5.76l-96.64 96.64-3.2 3.84-3.2-3.84-96.64-96.64a37.546667 37.546667 0 0 0-52.053333-5.76 37.546667 37.546667 0 0 0 5.76 52.053333l89.173333 89.173333H362.666667a32 32 0 0 0 0 64h117.333333v85.333334H362.666667a32 32 0 0 0 0 64h117.333333V682.666667a32 32 0 0 0 64 0v-96H661.333333a32 32 0 1 0 0-64h-117.333333v-85.333334z" p-id="3794"></path></svg>