<?xml version="1.0" standalone="no"?><!DOCTYPE svg PUBLIC "-//W3C//DTD SVG 1.1//EN" "http://www.w3.org/Graphics/SVG/1.1/DTD/svg11.dtd"><svg t="1563113847669" class="icon" viewBox="0 0 1024 1024" version="1.1" xmlns="http://www.w3.org/2000/svg" p-id="9737" xmlns:xlink="http://www.w3.org/1999/xlink" width="200" height="200"><defs><style type="text/css"></style></defs><path d="M852.336804 4.65809 176.122765 4.65809c-26.079982 0-47.164183 21.155832-47.164183 47.199998l0 920.883481c0 26.045189 21.084201 47.165206 47.164183 47.165206l676.214039 0c26.00835 0 47.164183-21.120017 47.164183-47.165206L899.500986 51.858088C899.500986 25.813922 878.345154 4.65809 852.336804 4.65809zM386.221854 821.473377c0 10.632151-10.846022 19.194154-24.188912 19.194154l-86.551238 0c-13.378705 0-24.11728-8.562003-24.11728-19.194154l0-45.666062c0-10.631128 10.738575-19.194154 24.11728-19.194154l86.551238 0c13.343913 0 24.188912 8.563026 24.188912 19.194154L386.221854 821.473377zM386.221854 679.088506c0 10.595312-10.846022 19.157315-24.188912 19.157315l-86.551238 0c-13.378705 0-24.11728-8.562003-24.11728-19.157315l0-43.989887c0-10.631128 10.738575-19.193131 24.11728-19.193131l86.551238 0c13.343913 0 24.188912 8.562003 24.188912 19.193131L386.221854 679.088506zM386.221854 536.488741c0 10.56052-10.846022 19.123546-24.188912 19.123546l-86.551238 0c-13.378705 0-24.11728-8.562003-24.11728-19.123546l0-45.736671c0-10.56052 10.738575-19.122523 24.11728-19.122523l86.551238 0c13.343913 0 24.188912 8.562003 24.188912 19.122523L386.221854 536.488741zM576.948733 821.473377c0 10.632151-10.915607 19.194154-24.188912 19.194154l-79.701227 0c-13.378705 0-24.188912-8.562003-24.188912-19.194154l0-45.666062c0-10.631128 10.810207-19.194154 24.188912-19.194154l79.701227 0c13.273305 0 24.188912 8.563026 24.188912 19.194154L576.948733 821.473377zM576.948733 679.088506c0 10.595312-10.915607 19.157315-24.188912 19.157315l-79.701227 0c-13.378705 0-24.188912-8.562003-24.188912-19.157315l0-43.989887c0-10.631128 10.810207-19.193131 24.188912-19.193131l79.701227 0c13.273305 0 24.188912 8.562003 24.188912 19.193131L576.948733 679.088506zM576.948733 536.488741c0 10.56052-10.915607 19.123546-24.188912 19.123546l-79.701227 0c-13.378705 0-24.188912-8.562003-24.188912-19.123546l0-45.736671c0-10.56052 10.810207-19.122523 24.188912-19.122523l79.701227 0c13.273305 0 24.188912 8.562003 24.188912 19.122523L576.948733 536.488741zM778.807137 820.332391c0 10.559497-10.847046 19.158339-24.188912 19.158339L659.647223 839.490729c-13.34289 0-24.116257-8.597819-24.116257-19.158339L635.530966 774.594697c0-10.56052 10.773368-19.195178 24.116257-19.195178l94.972025 0c13.341866 0 24.188912 8.634658 24.188912 19.195178L778.80816 820.332391zM778.807137 677.910681c0 10.595312-10.847046 19.194154-24.188912 19.194154L659.647223 697.104835c-13.34289 0-24.116257-8.597819-24.116257-19.194154l0-43.988864c0-10.631128 10.773368-19.22997 24.116257-19.22997l94.972025 0c13.341866 0 24.188912 8.598842 24.188912 19.22997L778.80816 677.910681zM778.807137 535.276123c0 10.595312-10.847046 19.193131-24.188912 19.193131L659.647223 554.469254c-13.34289 0-24.116257-8.596795-24.116257-19.193131l0-45.666062c0-10.632151 10.773368-19.265786 24.116257-19.265786l94.972025 0c13.341866 0 24.188912 8.633634 24.188912 19.265786L778.80816 535.276123zM769.780553 370.378515l-116.76947 0c-12.271488 0-22.190395-26.829042-22.190395-45.308929 0-18.409279 9.917884-35.105542 22.190395-35.105542l116.76947 0c12.273535 0 22.191418 16.696264 22.191418 35.105542C791.971971 343.549473 782.054087 370.378515 769.780553 370.378515zM819.692313 214.757179c0 17.981537-15.804964 32.537044-35.21299 32.537044l-540.428469 0c-19.515473 0-35.355229-14.555507-35.355229-32.537044L208.695624 118.645191c0-17.981537 15.839757-32.608675 35.355229-32.608675l540.428469 0c19.408025 0 35.21299 14.627139 35.21299 32.608675L819.692313 214.757179z" p-id="9738"></path></svg>