<?xml version="1.0" standalone="no"?><!DOCTYPE svg PUBLIC "-//W3C//DTD SVG 1.1//EN" "http://www.w3.org/Graphics/SVG/1.1/DTD/svg11.dtd"><svg t="1557386741468" class="icon" style="" viewBox="0 0 1024 1024" version="1.1" xmlns="http://www.w3.org/2000/svg" p-id="3602" xmlns:xlink="http://www.w3.org/1999/xlink" width="200" height="200"><defs><style type="text/css"></style></defs><path d="M904.448 958.72H118.016c-61.184 0-109.184-48-109.184-109.184V329.472c0-61.184 48-109.184 109.184-109.184h786.432c61.184 0 109.184 48 109.184 109.184v519.936c0 61.184-48 109.312-109.184 109.312zM118.016 307.712c-13.056 0-21.888 8.704-21.888 21.888v519.936c0 13.056 8.704 21.888 21.888 21.888h786.432c13.056 0 21.888-8.704 21.888-21.888V329.472c0-13.056-8.704-21.888-21.888-21.888H118.016z m0 0" fill="#81B643" p-id="3603"></path><path d="M96.128 329.472l-77.44-43.648L126.72 111.104c21.888-26.24 56.832-43.648 91.776-43.648h594.176c34.944 0 69.888 17.536 91.776 43.648l4.352 4.352 92.16 161.792-67.456 43.52-94.592-161.664c-4.352-4.352-13.056-8.704-21.888-8.704H222.848c-8.704 0-17.536 4.352-21.888 8.704L96.128 329.472z m375.808 454.4L327.808 652.8l61.184-61.184 78.592 69.888L633.6 499.968l61.184 65.536-222.848 218.368z m0 0" fill="#81B643" p-id="3604"></path></svg>