<?xml version="1.0" standalone="no"?><!DOCTYPE svg PUBLIC "-//W3C//DTD SVG 1.1//EN" "http://www.w3.org/Graphics/SVG/1.1/DTD/svg11.dtd"><svg t="1557452123875" class="icon" style="" viewBox="0 0 1024 1024" version="1.1" xmlns="http://www.w3.org/2000/svg" p-id="5141" xmlns:xlink="http://www.w3.org/1999/xlink" width="200" height="200"><defs><style type="text/css"></style></defs><path d="M341.273012 469.453939c0-23.576563-19.120201-42.666654-42.666654-42.666654a127.969852 127.969852 0 0 1 0-255.939704 42.666654 42.666654 0 0 0 0-85.303198 213.273049 213.273049 0 0 0-138.628988 375.328048A298.546137 298.546137 0 0 0 0 725.363532a42.666654 42.666654 0 0 0 85.303198 0A213.273049 213.273049 0 0 1 298.606358 512.120593c23.546453 0 42.666654-19.090091 42.666654-42.636544z" fill="#1580E4" p-id="5142"></path><path d="M554.546061 938.636581H255.939704v-85.303197C255.939704 664.87143 408.720651 512.120593 597.182605 512.120593c49.953408 0 97.37753 10.749468 140.134515 30.050332a42.666654 42.666654 0 0 0 36.915539-76.932464l-0.210774-0.120442a421.848853 421.848853 0 0 0-18.427659-7.888965 255.939704 255.939704 0 1 0-316.793132 0c-157.177089 62.870835-268.164588 216.5551-268.164588 396.13444v127.969852c0 23.546453 19.090091 42.666654 42.666654 42.666654h341.242901a42.666654 42.666654 0 0 0 0-85.333308zM426.57621 256.180889a170.606395 170.606395 0 1 1 341.242901 0 170.606395 170.606395 0 0 1-341.242901 0z" fill="#1580E4" p-id="5143"></path><path d="M988.619799 848.365142h-140.495842v140.495842a35.139016 35.139016 0 0 1-70.278032 0v-140.495842h-140.495842a35.139016 35.139016 0 0 1 0-70.278031h140.495842v-140.495842a35.139016 35.139016 0 0 1 70.278032 0v140.495842h140.495842a35.139016 35.139016 0 0 1 0 70.278031z" fill="#1580E4" p-id="5144"></path></svg>