<?xml version="1.0" standalone="no"?><!DOCTYPE svg PUBLIC "-//W3C//DTD SVG 1.1//EN" "http://www.w3.org/Graphics/SVG/1.1/DTD/svg11.dtd"><svg t="1563113514523" class="icon" viewBox="0 0 1024 1024" version="1.1" xmlns="http://www.w3.org/2000/svg" p-id="7256" xmlns:xlink="http://www.w3.org/1999/xlink" width="200" height="200"><defs><style type="text/css"></style></defs><path d="M949.337043 903.524174c27.069217 0 49.152 22.038261 49.152 49.152 0 27.069217-22.082783 49.107478-49.152 49.107478H49.152a49.196522 49.196522 0 0 1 0-98.259478h57.878261v-59.525565c0-27.069217 22.038261-49.107478 49.107478-49.107479s49.107478 22.038261 49.107478 49.107479v59.525565h129.736348v-211.611826a49.152 49.152 0 0 1 98.214957 0v211.611826h129.691826v-362.406957a49.196522 49.196522 0 0 1 98.259478 0v362.406957h129.691826V384.400696a49.152 49.152 0 0 1 98.259478 0v519.123478h60.237913zM81.697391 684.877913a49.196522 49.196522 0 0 1-14.736695-96.033391 1256.71513 1256.71513 0 0 0 646.054956-470.594783l-16.339478 3.027478a49.463652 49.463652 0 0 1-57.165913-39.624347 49.41913 49.41913 0 0 1 39.624348-57.121392l130.938434-23.730087a49.330087 49.330087 0 0 1 57.121392 39.624348l23.730087 131.027478a49.330087 49.330087 0 0 1-48.484174 57.878261c-23.685565 0-43.987478-16.962783-48.217044-40.425739l-2.226087-12.198956a1351.457391 1351.457391 0 0 1-259.561739 273.986782 1337.789217 1337.789217 0 0 1-436.001391 231.869218 50.309565 50.309565 0 0 1-14.692174 2.31513z" p-id="7257"></path></svg>