<?xml version="1.0" standalone="no"?><!DOCTYPE svg PUBLIC "-//W3C//DTD SVG 1.1//EN" "http://www.w3.org/Graphics/SVG/1.1/DTD/svg11.dtd"><svg t="1563113294543" class="icon" viewBox="0 0 1024 1024" version="1.1" xmlns="http://www.w3.org/2000/svg" p-id="4411" xmlns:xlink="http://www.w3.org/1999/xlink" width="200" height="200"><defs><style type="text/css"></style></defs><path d="M537.6 682.496v144.896c10.24-1.536 20.48-6.656 30.72-15.36s15.36-25.6 15.36-50.688c0-18.432-4.096-33.792-12.8-45.568-8.704-12.288-19.968-23.04-33.28-33.28zM458.752 535.04c0 11.776 2.56 23.552 7.68 34.304 5.12 11.264 16.896 21.504 35.328 31.744V479.232c-10.24 0-19.968 4.608-29.184 13.824-9.216 9.216-13.824 23.552-13.824 41.984z" p-id="4412"></path><path d="M675.328 297.984c8.704-11.776 13.824-23.552 13.824-23.552l75.776-202.24c0-26.624-21.504-47.616-47.616-47.616 0 0-0.512-0.512-5.12-0.512-2.048 0-5.632 0-10.24 0.512-13.824 1.536-44.544 53.76-81.408 53.76-36.352 0-63.488-32.768-81.408-53.76-8.704-10.24-20.48-14.336-32.256-14.336-13.312 0-27.648 5.632-38.912 14.336-20.992 17.408-44.544 53.76-81.408 53.76-36.352 0-68.608-52.224-81.408-53.76-4.096-0.512-7.168-0.512-9.728-0.512-4.608 0-5.632 0.512-5.632 0.512-26.624 0-53.76 21.504-47.616 47.616 5.632 26.624 80.896 202.24 80.896 202.24s6.656 14.336 16.384 27.136C167.424 372.736 45.568 543.232 45.568 712.704c0 221.696 208.896 311.296 466.432 311.296s466.432-89.6 466.432-311.296c0-172.544-125.952-346.112-303.104-414.72zM606.208 844.8c-22.016 20.48-45.056 30.72-68.608 30.72v63.488h-35.84V875.52c-28.672 0-53.76-11.776-74.752-35.328-20.992-23.552-31.744-59.904-31.744-109.056h58.368c0 42.496 6.144 69.12 17.92 79.872 11.776 11.264 22.016 16.384 30.72 16.384v-165.376c-40.448-22.016-67.072-41.984-78.848-59.904-11.776-17.92-17.92-38.4-17.92-62.464 0-30.72 8.704-55.296 26.624-74.752 17.92-19.456 40.96-30.72 69.632-34.304v-48.128h35.328v48.128c28.672 0 52.224 11.264 69.632 34.304s26.624 51.2 26.624 84.992h-55.808c0-25.6-4.608-43.52-13.824-54.784-9.216-10.752-18.432-16.384-26.624-16.384v142.336c27.136 13.824 50.688 30.72 71.168 50.688s30.72 45.568 30.72 76.288c0 44.544-10.752 76.8-32.768 96.768z" p-id="4413"></path></svg>