<?xml version="1.0" standalone="no"?><!DOCTYPE svg PUBLIC "-//W3C//DTD SVG 1.1//EN" "http://www.w3.org/Graphics/SVG/1.1/DTD/svg11.dtd"><svg t="1557452022029" class="icon" style="" viewBox="0 0 1024 1024" version="1.1" xmlns="http://www.w3.org/2000/svg" p-id="4393" xmlns:xlink="http://www.w3.org/1999/xlink" width="200" height="200"><defs><style type="text/css"></style></defs><path d="M509.9621888 281.7273632c-77.436816 0-154.873632-16.30248747-226.1970144-44.83184107-10.18905493-4.0756224-14.26467627-16.30248747-10.18905493-26.4915424s16.30248747-14.26467627 26.4915424-10.18905386c67.24776107 28.5293536 136.53333333 42.79402987 209.89452693 42.79402986 71.32338347 0 138.57114453-14.26467627 203.7810944-40.75621973 10.18905493-4.0756224 22.41592 0 26.4915424 10.18905493s0 22.41592-10.18905493 26.4915424c-69.28557227 28.5293536-142.64676587 42.79402987-220.08358187 42.79402987z" fill="#d81e06" p-id="4394"></path><path d="M813.59602027 1019.41492587h-611.34328427c-67.24776107 0-122.26865707-55.020896-122.268656-122.26865707v-733.61194027c0-67.24776107 55.020896-122.26865707 122.268656-122.26865706h611.34328427c67.24776107 0 122.26865707 55.020896 122.268656 122.26865706v733.61194027c0 67.24776107-55.020896 122.26865707-122.268656 122.26865707z m-611.34328427-896.636816c-22.41592 0-40.75621867 18.34029867-40.75621867 40.75621866v733.61194027c0 22.41592 18.34029867 40.75621867 40.75621867 40.75621867h611.34328427c22.41592 0 40.75621867-18.34029867 40.75621866-40.75621867v-733.61194027c0-22.41592-18.34029867-40.75621867-40.75621866-40.75621866h-611.34328427z" fill="#d81e06" p-id="4395"></path><path d="M650.57114453 607.77711467h-285.2935328c-16.30248747 0-30.56716373-14.26467627-30.56716373-30.5671648s14.26467627-30.56716373 30.56716373-30.56716374h283.2557216c16.30248747 0 30.56716373 14.26467627 30.56716374 30.56716374s-12.22686613 30.56716373-28.52935254 30.5671648zM650.57114453 709.66766187h-285.2935328c-16.30248747 0-30.56716373-14.26467627-30.56716373-30.5671648s14.26467627-30.56716373 30.56716373-30.56716374h283.2557216c16.30248747 0 30.56716373 14.26467627 30.56716374 30.56716374s-12.22686613 30.56716373-28.52935254 30.5671648z" fill="#d81e06" p-id="4396"></path><path d="M507.9243776 840.08756267c-16.30248747 0-30.56716373-14.26467627-30.56716373-30.5671648V579.24776107c0-16.30248747 14.26467627-30.56716373 30.56716373-30.56716374s30.56716373 14.26467627 30.5671648 30.56716374v230.2726368c0 18.34029867-14.26467627 30.56716373-30.5671648 30.5671648z" fill="#d81e06" p-id="4397"></path><path d="M509.9621888 605.73930347c-10.18905493 0-18.34029867-4.0756224-24.4537312-12.22686614l-110.04179093-146.7223872c-10.18905493-14.26467627-8.15124373-32.60497493 6.11343253-42.79402986s32.60497493-8.15124373 42.79402987 6.11343253l110.04179093 146.72238827c10.18905493 14.26467627 8.15124373 32.60497493-6.11343253 42.79402986-6.11343253 4.0756224-12.22686613 6.11343253-18.34029867 6.11343254z" fill="#d81e06" p-id="4398"></path><path d="M503.84875627 605.73930347c-6.11343253 0-12.22686613-2.0378112-18.34029867-6.11343254-14.26467627-10.18905493-16.30248747-28.5293536-6.11343253-42.79402986l110.04179093-146.72238827c10.18905493-14.26467627 28.5293536-16.30248747 42.79402987-6.11343253 14.26467627 10.18905493 16.30248747 28.5293536 6.11343253 42.79402986l-110.04179093 146.7223872c-6.11343253 8.15124373-16.30248747 12.22686613-24.4537312 12.22686614z" fill="#d81e06" p-id="4399"></path></svg>