<?xml version="1.0" standalone="no"?><!DOCTYPE svg PUBLIC "-//W3C//DTD SVG 1.1//EN" "http://www.w3.org/Graphics/SVG/1.1/DTD/svg11.dtd"><svg t="1557585257809" class="icon" style="" viewBox="0 0 1024 1024" version="1.1" xmlns="http://www.w3.org/2000/svg" p-id="2185" xmlns:xlink="http://www.w3.org/1999/xlink" width="200" height="200"><defs><style type="text/css"></style></defs><path d="M512 1024C229.23 1024 0 794.77 0 512S229.23 0 512 0s512 229.23 512 512-229.23 512-512 512z m-11.404-385.86c23.825 0 42.824-16.66 42.824-36.963V271.63c0-20.305-19-36.964-42.824-36.964-23.827 0-42.827 16.66-42.827 36.964v329.285c0 20.565 19.302 37.225 42.827 37.225z m-164.07 0c23.828 0 42.828-19.302 42.828-42.827v-147.78c0-23.827-19.302-42.827-42.827-42.827S293.7 424.008 293.7 447.533v147.78c0 23.525 19.002 42.828 42.827 42.828z m328.137 0c23.827 0 42.827-19.302 42.827-42.827V378.165c0-23.827-19.302-42.827-42.827-42.827s-42.827 19.302-42.827 42.827v217.148c0 23.525 19.302 42.828 42.827 42.828z m54.89 42.223H281.638c-14.176 0-25.637 11.461-25.637 25.636 0 14.175 11.461 25.636 25.637 25.636h437.917c14.174 0 25.635-11.46 25.635-25.636 0-14.175-11.46-25.636-25.635-25.636z" fill="#F4AB4B" p-id="2186"></path></svg>