<?xml version="1.0" standalone="no"?><!DOCTYPE svg PUBLIC "-//W3C//DTD SVG 1.1//EN" "http://www.w3.org/Graphics/SVG/1.1/DTD/svg11.dtd"><svg t="1584855105291" class="icon" viewBox="0 0 1024 1024" version="1.1" xmlns="http://www.w3.org/2000/svg" p-id="2794" xmlns:xlink="http://www.w3.org/1999/xlink" width="32" height="32"><defs><style type="text/css"></style></defs><path d="M755.1488 46.08H263.7312A156.55424 156.55424 0 0 0 107.52 202.62912v618.74176A156.55424 156.55424 0 0 0 263.7312 977.92h491.4176A156.55424 156.55424 0 0 0 911.36 821.37088V202.62912A156.55424 156.55424 0 0 0 755.1488 46.08zM263.7312 117.21216h491.4176a85.42208 85.42208 0 0 1 85.23264 85.41696v17.9712a1267.8656 1267.8656 0 0 1-661.88288 6.656v-24.6272A85.42208 85.42208 0 0 1 263.7312 117.21216z m491.4176 789.57568H263.7312a85.42208 85.42208 0 0 1-85.23264-85.41696V300.73344a1339.2896 1339.2896 0 0 0 318.57664 38.51776 1339.33056 1339.33056 0 0 0 343.30624-44.82048v526.94016a85.42208 85.42208 0 0 1-85.23264 85.41696z m-125.04576-302.32064a35.56864 35.56864 0 0 0 0-71.13216h-49.24928l36.6848-47.616a35.51744 35.51744 0 1 0-56.18688-43.46368l-52.736 68.46976-67.30752-71.20896A35.52768 35.52768 0 1 0 389.78048 488.448l42.43968 44.89216h-43.4432a35.56864 35.56864 0 0 0 0 71.13216h85.1712v55.12704H388.77696a35.56864 35.56864 0 0 0 0 71.13216h85.1712v37.34528a35.49184 35.49184 0 1 0 70.98368 0v-37.3504h85.1712a35.56864 35.56864 0 0 0 0-71.13216h-85.1712V604.4672h85.1712z" p-id="2795"></path></svg>