<?xml version="1.0" standalone="no"?><!DOCTYPE svg PUBLIC "-//W3C//DTD SVG 1.1//EN" "http://www.w3.org/Graphics/SVG/1.1/DTD/svg11.dtd"><svg t="1557386948197" class="icon" style="" viewBox="0 0 1408 1024" version="1.1" xmlns="http://www.w3.org/2000/svg" p-id="11283" xmlns:xlink="http://www.w3.org/1999/xlink" width="275" height="200"><defs><style type="text/css"></style></defs><path d="M74.382222 0a74.311111 74.311111 0 0 1 74.24 74.339556V1024H0V74.339556A74.339556 74.339556 0 0 1 74.382222 0z m1259.235556 367.587556A74.339556 74.339556 0 0 1 1408 441.927111V1024H1259.377778V441.927111a74.311111 74.311111 0 0 1 74.24-74.339555zM122.453333 665.159111h1136.924445v148.792889H122.453333V665.159111z m183.608889-288.824889a122.538667 122.538667 0 1 1-122.453333 122.538667 122.453333 122.453333 0 0 1 122.453333-122.538667zM594.631111 341.333333v288.824889H428.515556c0-5.276444 6.684444-294.599111 166.115555-288.824889z m26.311111 0h443.733334a142.222222 142.222222 0 0 1 142.222222 142.222223v137.841777h-585.955556V341.333333z" fill="#55ACEE" p-id="11284"></path></svg>